<svg xmlns="http://www.w3.org/2000/svg" xmlns:xlink="http://www.w3.org/1999/xlink" width="146.44" height="108.731" viewBox="0 0 146.44 108.731">
  <defs>
    <linearGradient id="linear-gradient" x1="0.5" x2="0.5" y2="1" gradientUnits="objectBoundingBox">
      <stop offset="0" stop-color="#320ab8"/>
      <stop offset="1" stop-color="#f60000"/>
    </linearGradient>
  </defs>
  <path id="_1539038325" data-name="1539038325" d="M168.756,33.96l-1.591.312s-1.773.467-9.284-2.2S138.641,33,136.78,44c-1.853,6-7.366,10.435-10.786,14.125-10.407-6.085-10.6-6.948-20.187-11.678-2.982-1.162-7.781-5.419-28.652-7.927-2.577-.123-15.958-1.178-24.468,1.66-.124,2.116,1,6.389,12.726,9.705S79.166,54.9,88.873,62.263c14.723,13.186,16.051,13.227,21.919,14.7l-.008.015h.075l0-.041.032.018.027-.049a.893.893,0,0,0,.1.01S105.085,89.32,100.6,108.828c-4.442,19.344-23.7,30.811-23.873,31.014,1.5-.55,7.006,5.474,30.925-27.084,0,0,13.838-17.865,27.28-26.767s17.5-18.432,16.818-26.655c6.679-5.132,6.03-18.162,15.18-21.948,9.378-3.043,26.734-4.968,32.186-4.063C199.119,33.325,186.324,30.879,168.756,33.96Z" transform="translate(-52.679 -31.227)" fill="url(#linear-gradient)"/>
</svg>
