<?xml version="1.0" standalone="no"?>
<!DOCTYPE svg PUBLIC "-//W3C//DTD SVG 20010904//EN"
 "http://www.w3.org/TR/2001/REC-SVG-20010904/DTD/svg10.dtd">
<svg version="1.0" xmlns="http://www.w3.org/2000/svg"
 width="1168.000000pt" height="1168.000000pt" viewBox="0 0 1168.000000 1168.000000"
 preserveAspectRatio="xMidYMid meet">
<metadata>
Created by potrace 1.14, written by Peter Selinger 2001-2017
</metadata>
<g transform="translate(0.000000,1168.000000) scale(0.100000,-0.100000)"
fill="#000000" stroke="none">
<path d="M7848 10165 c-2 -2 -26 -6 -53 -9 -85 -10 -108 -15 -180 -36 -38 -11
-77 -22 -85 -25 -84 -23 -305 -135 -323 -162 -4 -7 -15 -13 -22 -13 -8 0 -15
-4 -15 -10 0 -5 -5 -10 -10 -10 -19 0 -160 -134 -205 -195 -17 -22 -36 -46
-42 -53 -19 -20 -90 -144 -114 -199 -30 -68 -69 -183 -62 -183 3 0 0 -7 -7
-15 -7 -8 -10 -15 -8 -15 4 0 -14 -86 -26 -125 -31 -99 -161 -343 -188 -353
-4 -2 -8 -8 -8 -14 0 -6 -29 -47 -65 -93 -102 -131 -182 -218 -434 -473 -124
-125 -157 -153 -170 -145 -105 62 -257 151 -281 165 -17 9 -39 22 -48 30 -9 7
-33 22 -52 32 -19 11 -37 22 -40 25 -3 4 -16 12 -30 19 -14 7 -37 20 -52 30
-15 9 -105 65 -200 124 -95 59 -178 112 -185 118 -7 5 -15 10 -18 10 -3 0 -33
17 -68 38 -34 20 -76 44 -92 52 -17 8 -32 17 -35 20 -22 22 -753 390 -905 455
-70 30 -104 42 -123 46 -4 0 -16 6 -27 12 -11 6 -24 12 -30 13 -5 1 -55 18
-110 37 -128 44 -243 80 -274 84 -14 3 -32 8 -42 14 -10 5 -29 9 -43 9 -14 0
-26 5 -26 11 0 5 -4 8 -8 5 -5 -3 -53 6 -108 19 -90 21 -221 50 -284 61 -14 3
-36 7 -50 10 -14 3 -52 9 -85 14 -33 5 -85 14 -115 20 -73 14 -109 20 -150 24
-19 2 -46 6 -60 9 -14 3 -47 9 -75 12 -47 5 -81 10 -150 20 -52 8 -148 16
-221 19 -39 2 -76 6 -82 10 -7 4 -12 2 -12 -4 0 -6 -5 -8 -11 -4 -29 18 -669
18 -929 0 -90 -6 -213 -17 -240 -21 -14 -2 -61 -9 -105 -15 -44 -7 -91 -14
-105 -16 -14 -2 -36 -6 -50 -8 -14 -3 -25 -5 -25 -6 0 -1 -13 -4 -30 -6 -16
-3 -81 -19 -144 -36 l-113 -31 5 -57 c15 -145 101 -271 271 -393 39 -29 80
-57 91 -64 39 -24 237 -120 265 -128 3 -1 21 -8 40 -17 63 -27 337 -117 405
-133 6 -1 17 -5 25 -8 8 -3 29 -9 45 -13 17 -4 32 -8 35 -9 3 -1 25 -7 50 -14
25 -7 54 -17 65 -21 11 -5 65 -23 120 -40 55 -17 109 -34 120 -39 11 -5 47
-18 80 -31 33 -12 79 -31 103 -41 24 -11 62 -27 85 -36 42 -17 158 -75 252
-128 127 -71 574 -383 583 -406 2 -5 9 -9 15 -9 7 0 26 -14 44 -30 18 -17 37
-30 42 -30 6 0 11 -3 11 -7 0 -5 17 -19 38 -33 20 -14 39 -27 42 -30 3 -3 28
-23 55 -45 28 -22 65 -55 83 -72 18 -18 35 -33 37 -33 3 0 23 -18 45 -40 22
-22 42 -40 45 -40 2 0 15 -10 27 -22 13 -13 54 -50 92 -83 38 -33 80 -70 93
-82 13 -11 41 -35 63 -53 21 -17 48 -39 58 -48 11 -10 43 -37 72 -62 29 -25
58 -49 64 -55 6 -5 32 -26 56 -45 25 -19 52 -40 60 -47 51 -42 167 -131 191
-148 164 -110 255 -167 304 -189 33 -15 69 -32 79 -38 49 -26 333 -110 379
-112 9 0 17 -2 17 -4 0 -3 -16 -39 -36 -81 -20 -42 -37 -80 -38 -86 -1 -5 -14
-37 -30 -70 -15 -33 -30 -72 -33 -87 -3 -16 -9 -28 -14 -28 -5 0 -9 -7 -9 -16
0 -8 -8 -34 -19 -57 -10 -23 -44 -112 -76 -197 -31 -85 -64 -173 -72 -195 -25
-65 -202 -601 -207 -627 -4 -21 -20 -72 -33 -108 -3 -8 -7 -19 -8 -25 -2 -5
-22 -77 -45 -159 -23 -82 -44 -156 -45 -165 -2 -9 -4 -17 -5 -18 -2 -2 -4 -7
-5 -13 -1 -5 -4 -11 -5 -12 -1 -2 -4 -12 -6 -23 -1 -11 -12 -54 -24 -95 -12
-41 -24 -91 -27 -110 -3 -19 -10 -38 -16 -42 -6 -4 -9 -10 -5 -13 3 -3 0 -30
-8 -58 -16 -58 -43 -171 -48 -202 -2 -11 -14 -56 -26 -100 -12 -44 -23 -89
-25 -100 -2 -11 -4 -20 -4 -20 -1 0 -23 -63 -50 -140 -62 -178 -74 -209 -84
-216 -5 -3 -9 -10 -9 -15 1 -14 -118 -265 -129 -274 -3 -3 -19 -30 -35 -60
-16 -30 -36 -66 -45 -80 -9 -14 -38 -59 -65 -100 -46 -73 -163 -239 -187 -266
-7 -7 -20 -24 -29 -36 -41 -56 -181 -220 -232 -273 -31 -33 -56 -60 -56 -62 0
-11 -299 -293 -311 -293 -5 0 -9 -7 -9 -15 0 -8 -3 -15 -8 -15 -4 0 -25 -15
-46 -33 -21 -17 -60 -49 -85 -71 -25 -21 -58 -49 -73 -62 -16 -13 -28 -22 -28
-19 0 3 -8 -3 -18 -12 -25 -24 -50 -43 -92 -73 -19 -13 -37 -27 -40 -30 -3 -3
-27 -21 -55 -40 -27 -19 -51 -38 -53 -42 -2 -4 -8 -8 -13 -8 -4 0 -29 -15 -55
-32 l-46 -33 59 -8 c68 -10 210 -1 238 14 6 3 38 14 72 25 35 10 63 22 63 26
0 5 6 8 14 8 22 0 183 93 198 115 4 5 8 7 8 3 0 -5 21 8 48 27 26 19 52 39 57
43 6 4 33 25 60 47 28 22 55 43 60 48 108 84 403 370 560 542 44 49 85 93 90
99 6 6 39 45 75 86 35 41 71 82 80 92 8 9 26 31 40 49 14 18 39 47 57 66 18
18 31 33 28 33 -4 0 16 26 50 64 6 6 28 34 50 61 21 28 42 52 45 55 5 4 97
121 122 155 4 6 23 28 40 51 18 22 42 53 53 68 11 15 27 36 36 46 8 10 23 29
32 42 53 71 246 328 256 340 36 44 88 108 101 124 8 11 35 44 60 74 25 30 52
63 60 73 8 10 24 29 35 41 11 12 45 51 75 86 30 35 62 71 70 80 8 9 30 34 49
55 18 22 70 80 115 129 44 49 104 114 131 145 83 92 575 582 653 651 40 36 90
81 111 100 20 19 59 53 85 75 27 22 54 45 60 50 6 6 34 28 61 50 28 22 55 45
60 51 6 6 39 33 75 60 80 60 87 65 109 84 9 8 42 32 73 53 31 21 67 47 79 58
12 10 28 19 36 19 7 0 13 3 13 8 0 4 28 25 63 47 34 22 64 42 67 45 3 3 22 16
42 30 21 14 38 28 38 33 0 4 7 7 15 7 8 0 15 5 15 10 0 6 6 10 14 10 8 0 16 3
18 8 2 4 23 23 48 42 299 230 551 491 729 757 33 50 61 96 61 102 0 6 3 11 8
11 4 0 16 20 27 45 11 25 23 45 28 45 4 0 7 5 7 11 0 6 13 39 29 73 46 97 105
256 95 256 -3 0 0 8 5 18 6 11 12 30 15 43 3 13 10 42 15 64 25 101 34 194 35
355 l1 135 65 65 c76 76 110 116 110 129 0 5 4 11 9 13 25 9 145 232 216 403
21 50 42 94 47 100 4 5 8 15 8 23 0 7 9 32 19 55 38 84 49 115 43 121 -3 3 0
6 6 6 7 0 12 4 12 10 0 37 191 417 220 440 4 3 12 14 18 26 17 33 61 83 138
159 95 94 122 114 202 156 18 10 38 21 45 26 15 12 268 91 317 99 8 1 56 12
105 24 96 23 103 24 180 40 28 6 61 13 75 16 54 11 66 13 100 18 19 3 46 8 60
11 47 11 210 39 290 49 25 3 56 8 70 10 42 8 191 28 310 41 30 3 71 8 90 10
19 3 62 7 95 10 33 3 85 7 115 10 139 13 175 15 320 21 181 7 267 7 278 0 4
-2 14 -1 21 3 14 9 -25 16 -139 26 -36 4 -83 8 -105 10 -225 24 -880 24 -1145
0 -47 -4 -184 -16 -235 -20 -38 -3 -139 -14 -187 -20 -100 -13 -104 -13 -223
-32 -22 -3 -49 -7 -60 -9 -58 -8 -108 -16 -180 -31 -44 -9 -96 -17 -115 -18
-30 -1 -173 19 -205 29 -5 1 -28 6 -50 10 -22 4 -47 10 -55 13 -8 3 -25 8 -37
10 -12 2 -48 12 -80 24 -32 11 -67 22 -78 24 -21 5 -218 71 -245 82 -16 7 -34
12 -65 18 -11 2 -31 6 -45 9 -65 14 -116 18 -247 21 -78 2 -143 2 -145 0z"/>
<path d="M11510 10020 c0 -5 7 -7 15 -4 8 4 15 8 15 10 0 2 -7 4 -15 4 -8 0
-15 -4 -15 -10z"/>
</g>
</svg>
