<svg xmlns="http://www.w3.org/2000/svg" width="163.861" height="30.208" viewBox="0 0 163.861 30.208">
  <g id="text" transform="translate(0 -0.599)">
    <path id="Path_43" data-name="Path 43" d="M94.229,30,106.791,1.565a.532.532,0,0,0-.526-.8h-8.8a1.456,1.456,0,0,0-1.223.809L83.843,30a.536.536,0,0,0,.526.8H93A1.456,1.456,0,0,0,94.229,30Z" fill="#2e2e2e"/>
    <path id="Path_44" data-name="Path 44" d="M139.272,22.343,158.761.772h-22.8l-5.157,8.311h8.94L119.938,30.807h24.128l8.985-8.464Z" fill="#2e2e2e"/>
    <path id="Path_45" data-name="Path 45" d="M51.425,9.359l-1.859,4.1a1.5,1.5,0,0,1-1.672,1.036H43.688L46.5,8.117h4.033C51.514,8.166,51.769,8.527,51.425,9.359Zm4.4-8.587H40.74a2.544,2.544,0,0,0-2.138,1.4L26.726,29.4a.928.928,0,0,0,.916,1.4h7.482a2.546,2.546,0,0,0,2.144-1.4l3.384-7.714h3.515c1.093-.067,1.566.327.96,1.6l-2.61,6.1a.939.939,0,0,0,.93,1.408h7.486A2.538,2.538,0,0,0,53.068,29.4l3.4-7.858c1.069-2.552-.479-4.527-2.719-4.636a9.015,9.015,0,0,0,4.634-4.474l1.759-4.146C62.267,3.473,60.755.709,55.829.772Z" fill="#2e2e2e"/>
    <path id="Path_46" data-name="Path 46" d="M80.246,9.5l-.756,1.727-.111.225a1.726,1.726,0,0,1-1.754,1.157H73.277l1.992-4.568h4.417C80.488,8.095,80.614,8.611,80.246,9.5ZM77.373,19.568l-1.089,2.18A2.658,2.658,0,0,1,73.456,23.7H68.45l2.4-5.653h5.006C77.267,18.151,77.822,18.5,77.373,19.568ZM85.21.761h-16a1.817,1.817,0,0,0-1.526,1L55.459,29.795a.662.662,0,0,0,.658,1H73.236c5.429-.076,8.54-1.283,11.021-7.029l1.758-3.828c1.389-3.281.028-4.7-2.559-5.116a7.655,7.655,0,0,0,4.472-4.474l1.435-3.036C91.12,3.248,89.65.7,85.21.761Z" fill="#2e2e2e"/>
    <path id="Path_47" data-name="Path 47" d="M109.56.772l-3.724,8.311h5.308a.389.389,0,0,1,.385.594l-9.267,20.532a.39.39,0,0,0,.382.6H112.1a1.1,1.1,0,0,0,.922-.6l8.9-20.521a1.091,1.091,0,0,1,.915-.6h5.444L133.4.772Z" fill="#2e2e2e"/>
    <path id="Path_48" data-name="Path 48" d="M31.185,11l1.172-2.559c2.366-5.4.8-7.724-3.837-7.665H17.342C12.756.712,8.913,3.3,6.794,8.119L3.333,17.865H.085l6.237,8.42,10.308-8.42H14.008l3.028-7.029a2.579,2.579,0,0,1,2.24-1.753h1.76a1.22,1.22,0,0,1,.865.329l5.47-4.594Z" fill="#2e2e2e"/>
    <path id="img" d="M6.083,28.758,1.5,22.952l-.239.507C-.875,28.314-.521,30.73,4.08,30.807H15.1a11.576,11.576,0,0,0,10.705-7.347l3.263-7.512h2.941L27,7.525,16.781,15.947h2.809l-2.071,4.794a2.511,2.511,0,0,1-2.075,1.6h-1.46Z" fill="#2e2e2e"/>
    <path id="Path_49" data-name="Path 49" d="M162.194,1.963h.165c.2,0,.3-.076.3-.229s-.093-.219-.283-.219h-.179Zm.949.876h-.349l-.411-.624h-.188V2.84h-.307V1.259h.5a.643.643,0,0,1,.41.127.407.407,0,0,1,.16.339.424.424,0,0,1-.3.416Zm-.745.417a1.164,1.164,0,0,0,.851-.352,1.157,1.157,0,0,0,.354-.849,1.151,1.151,0,0,0-.354-.845,1.2,1.2,0,0,0-1.7,0,1.152,1.152,0,0,0-.352.845,1.164,1.164,0,0,0,.35.851A1.157,1.157,0,0,0,162.4,3.256ZM162.4.6a1.414,1.414,0,0,1,1.035.428,1.405,1.405,0,0,1,.429,1.028,1.422,1.422,0,0,1-.429,1.039,1.458,1.458,0,0,1-2.069,0,1.419,1.419,0,0,1-.429-1.039,1.4,1.4,0,0,1,.427-1.03A1.412,1.412,0,0,1,162.4.6Z" fill="#2e2e2e"/>
  </g>
</svg>
